<svg width="394" height="240" xmlns="http://www.w3.org/2000/svg">
 <!-- Created with Method Draw - http://github.com/duopixel/Method-Draw/ -->
 <g>
  <title>background</title>
  <rect fill="#fff" id="canvas_background" height="242" width="396" y="-1" x="-1"/>
 </g>
 <g>
  <title>Layer 1</title>
  <rect stroke="#999999" id="svg_185" height="12.628753" width="362.998458" y="173.990728" x="19.143864" stroke-width="0.5" fill="#fefefe"/>
  <rect stroke="#999999" id="svg_183" height="11.628753" width="362.998458" y="151.402057" x="19.143864" stroke-width="0.5" fill="#fefefe"/>
  <rect stroke="#999999" id="svg_1" height="11.962086" width="362.998458" y="8.914028" x="19.143864" stroke-width="0.5" fill="#fefefe"/>
  <rect stroke="#d3d3d3" id="svg_11" height="61.621419" width="106.486144" y="25.805679" x="21.615548" fill-opacity="null" stroke-width="0.5" fill="#fafafa"/>
  <text xml:space="preserve" text-anchor="start" font-family="Junction, sans-serif" font-size="10" id="svg_13" y="38.778609" x="31.345246" fill-opacity="null" stroke-opacity="null" stroke-width="0" stroke="#d3d3d3" fill="#6b6b6b">Recruiter</text>
  <line stroke-linecap="null" stroke-linejoin="null" id="svg_16" y2="47.42723" x2="116.812721" y1="47.42723" x1="32.426323" fill-opacity="null" stroke-opacity="null" stroke-width="3.5" stroke="#d3d3d3" fill="none"/>
  <line stroke-linecap="null" stroke-linejoin="null" id="svg_17" y2="56.07585" x2="116.812721" y1="56.07585" x1="32.426323" fill-opacity="null" stroke-opacity="null" stroke-width="3.5" stroke="#d3d3d3" fill="none"/>
  <line stroke-linecap="null" stroke-linejoin="null" id="svg_18" y2="64.183932" x2="116.812721" y1="64.183932" x1="32.426323" fill-opacity="null" stroke-opacity="null" stroke-width="3.5" stroke="#d3d3d3" fill="none"/>
  <line stroke-linecap="null" stroke-linejoin="null" id="svg_19" y2="72.832553" x2="116.812721" y1="72.832553" x1="32.426323" fill-opacity="null" stroke-opacity="null" stroke-width="3.5" stroke="#d3d3d3" fill="none"/>
  <rect stroke="#d3d3d3" id="svg_21" height="61.621419" width="106.486144" y="25.805679" x="147.049668" fill-opacity="null" stroke-width="0.5" fill="#fafafa"/>
  <text style="cursor: move;" xml:space="preserve" text-anchor="start" font-family="Junction, sans-serif" font-size="10" id="svg_22" y="38.778609" x="156.779366" fill-opacity="null" stroke-opacity="null" stroke-width="0" stroke="#d3d3d3" fill="#6b6b6b">Firtst Interview</text>
  <line stroke-linecap="null" stroke-linejoin="null" id="svg_23" y2="47.42723" x2="242.246842" y1="47.42723" x1="157.860443" fill-opacity="null" stroke-opacity="null" stroke-width="3.5" stroke="#d3d3d3" fill="none"/>
  <line stroke-linecap="null" stroke-linejoin="null" id="svg_24" y2="56.07585" x2="242.246842" y1="56.07585" x1="157.860443" fill-opacity="null" stroke-opacity="null" stroke-width="3.5" stroke="#d3d3d3" fill="none"/>
  <line stroke-linecap="null" stroke-linejoin="null" id="svg_25" y2="64.183932" x2="242.246842" y1="64.183932" x1="157.860443" fill-opacity="null" stroke-opacity="null" stroke-width="3.5" stroke="#d3d3d3" fill="none"/>
  <line stroke-linecap="null" stroke-linejoin="null" id="svg_26" y2="72.832553" x2="242.246842" y1="72.832553" x1="157.860443" fill-opacity="null" stroke-opacity="null" stroke-width="3.5" stroke="#d3d3d3" fill="none"/>
  <rect stroke="#d3d3d3" id="svg_35" height="61.621419" width="106.486144" y="25.805679" x="274.60196" fill-opacity="null" stroke-width="0.5" fill="#fafafa"/>
  <text style="cursor: move;" xml:space="preserve" text-anchor="start" font-family="Junction, sans-serif" font-size="10" id="svg_36" y="38.778609" x="284.331658" fill-opacity="null" stroke-opacity="null" stroke-width="0" stroke="#d3d3d3" fill="#6b6b6b">Skype Interview</text>
  <line stroke-linecap="null" stroke-linejoin="null" id="svg_37" y2="47.42723" x2="369.799133" y1="47.42723" x1="285.412735" fill-opacity="null" stroke-opacity="null" stroke-width="3.5" stroke="#d3d3d3" fill="none"/>
  <line stroke-linecap="null" stroke-linejoin="null" id="svg_38" y2="56.07585" x2="369.799133" y1="56.07585" x1="285.412735" fill-opacity="null" stroke-opacity="null" stroke-width="3.5" stroke="#d3d3d3" fill="none"/>
  <line stroke-linecap="null" stroke-linejoin="null" id="svg_39" y2="64.183932" x2="369.799133" y1="64.183932" x1="285.412735" fill-opacity="null" stroke-opacity="null" stroke-width="3.5" stroke="#d3d3d3" fill="none"/>
  <line stroke-linecap="null" stroke-linejoin="null" id="svg_40" y2="72.832553" x2="369.799133" y1="72.832553" x1="285.412735" fill-opacity="null" stroke-opacity="null" stroke-width="3.5" stroke="#d3d3d3" fill="none"/>
  <rect stroke="#999999" id="svg_47" height="61.621419" width="106.486144" y="25.139012" x="21.615548" stroke-width="0.5" fill="#fefefe"/>
  <line stroke-linecap="null" stroke-linejoin="null" id="svg_49" y2="47.42723" x2="116.812721" y1="47.42723" x1="32.426323" fill-opacity="null" stroke-opacity="null" stroke="#d3d3d3" fill="none"/>
  <line stroke-linecap="null" stroke-linejoin="null" id="svg_50" y2="56.07585" x2="116.812721" y1="56.07585" x1="32.426323" fill-opacity="null" stroke-opacity="null" stroke="#d3d3d3" fill="none"/>
  <line stroke-linecap="null" stroke-linejoin="null" id="svg_51" y2="64.183932" x2="116.812721" y1="64.183932" x1="32.426323" fill-opacity="null" stroke-opacity="null" stroke="#d3d3d3" fill="none"/>
  <line stroke-linecap="null" stroke-linejoin="null" id="svg_52" y2="72.832553" x2="116.812721" y1="72.832553" x1="32.426323" fill-opacity="null" stroke-opacity="null" stroke="#d3d3d3" fill="none"/>
  <rect stroke="#999999" id="svg_53" height="61.621419" width="106.486144" y="25.805679" x="147.049668" stroke-width="0.5" fill="#fefefe"/>
  <line stroke-linecap="null" stroke-linejoin="null" id="svg_55" y2="47.42723" x2="242.246842" y1="47.42723" x1="157.860443" fill-opacity="null" stroke-opacity="null" stroke="#d3d3d3" fill="none"/>
  <line stroke-linecap="null" stroke-linejoin="null" id="svg_56" y2="56.07585" x2="242.246842" y1="56.07585" x1="157.860443" fill-opacity="null" stroke-opacity="null" stroke="#d3d3d3" fill="none"/>
  <line stroke-linecap="null" stroke-linejoin="null" id="svg_57" y2="64.183932" x2="242.246842" y1="64.183932" x1="157.860443" fill-opacity="null" stroke-opacity="null" stroke="#d3d3d3" fill="none"/>
  <line stroke-linecap="null" stroke-linejoin="null" id="svg_58" y2="72.832553" x2="242.246842" y1="72.832553" x1="157.860443" fill-opacity="null" stroke-opacity="null" stroke="#d3d3d3" fill="none"/>
  <rect stroke="#999999" id="svg_59" height="61.621419" width="106.486144" y="25.805679" x="274.60196" stroke-width="0.5" fill="#fefefe"/>
  <line stroke-linecap="null" stroke-linejoin="null" id="svg_61" y2="47.42723" x2="369.799133" y1="47.42723" x1="285.412735" fill-opacity="null" stroke-opacity="null" stroke="#d3d3d3" fill="none"/>
  <line stroke-linecap="null" stroke-linejoin="null" id="svg_62" y2="56.07585" x2="369.799133" y1="56.07585" x1="285.412735" fill-opacity="null" stroke-opacity="null" stroke="#d3d3d3" fill="none"/>
  <line stroke-linecap="null" stroke-linejoin="null" id="svg_63" y2="64.183932" x2="369.799133" y1="64.183932" x1="285.412735" fill-opacity="null" stroke-opacity="null" stroke="#d3d3d3" fill="none"/>
  <line stroke-linecap="null" stroke-linejoin="null" id="svg_64" y2="72.832553" x2="369.799133" y1="72.832553" x1="285.412735" fill-opacity="null" stroke-opacity="null" stroke="#d3d3d3" fill="none"/>
  <rect stroke="#999999" id="svg_71" height="38" width="106.486144" y="102.253226" x="21.615548" stroke-width="0.5" fill="#fefefe"/>
  <line stroke-linecap="null" stroke-linejoin="null" id="svg_73" y2="123.874778" x2="116.812721" y1="123.874778" x1="32.426323" fill-opacity="null" stroke-opacity="null" stroke="#d3d3d3" fill="none"/>
  <rect stroke="#999999" id="svg_77" height="38" width="106.486144" y="102.253226" x="147.049668" stroke-width="0.5" fill="#fefefe"/>
  <line stroke-linecap="null" stroke-linejoin="null" id="svg_79" y2="123.874778" x2="242.246842" y1="123.874778" x1="157.860443" fill-opacity="null" stroke-opacity="null" stroke="#d3d3d3" fill="none"/>
  <rect stroke="#999999" id="svg_83" height="38" width="106.486144" y="102.253226" x="274.60196" stroke-width="0.5" fill="#fefefe"/>
  <line stroke-linecap="null" stroke-linejoin="null" id="svg_85" y2="123.874778" x2="369.799133" y1="123.874778" x1="285.412735" fill-opacity="null" stroke-opacity="null" stroke="#d3d3d3" fill="none"/>
  <path stroke="#898989" id="svg_174" d="m347.103418,224.375871l2.832508,0l0,-2.832508l2.905616,0l0,2.832508l2.832508,0l0,2.905617l-2.832508,0l0,2.832508l-2.905616,0l0,-2.832508l-2.832508,0l0,-2.905617z" stroke-width="0" fill="#79d1a3"/>
  <path stroke="#ff0000" id="svg_178" d="m9.208274,13.804144l1.25838,-1.25838l1.336758,1.336746l1.336757,-1.336746l1.258392,1.25838l-1.336758,1.336757l1.336758,1.336758l-1.258392,1.258392l-1.336757,-1.336758l-1.336758,1.336758l-1.25838,-1.258392l1.336747,-1.336758l-1.336747,-1.336757z" stroke-width="0" fill="#f27b7b"/>
  <path stroke="#ff0000" id="svg_179" d="m9.208274,155.868354l1.25838,-1.25838l1.336758,1.336747l1.336757,-1.336747l1.258392,1.25838l-1.336758,1.336758l1.336758,1.336758l-1.258392,1.258391l-1.336757,-1.336758l-1.336758,1.336758l-1.25838,-1.258391l1.336747,-1.336758l-1.336747,-1.336758z" stroke-width="0" fill="#f27b7b"/>
  <path stroke="#ff0000" id="svg_180" d="m9.208274,179.75507l1.25838,-1.25838l1.336758,1.336747l1.336757,-1.336747l1.258392,1.25838l-1.336758,1.336758l1.336758,1.336758l-1.258392,1.258391l-1.336757,-1.336758l-1.336758,1.336758l-1.25838,-1.258391l1.336747,-1.336758l-1.336747,-1.336758z" stroke-width="0" fill="#f27b7b"/>
  <path stroke="#898989" transform="rotate(-90 372.02673339843756,16.037733078002905) " id="svg_184" d="m370.05065,17.881295l1.844021,-1.844012l-1.844021,-1.844025l1.053952,-1.053838l2.898197,2.897863l-2.898197,2.898762" stroke-width="0" fill="#5991a5"/>
  <rect stroke="#999999" id="svg_187" height="12.628753" width="362.998458" y="196.326547" x="19.143864" stroke-width="0.5" fill="#fefefe"/>
  <path stroke="#ff0000" id="svg_191" d="m9.208274,202.090889l1.25838,-1.25838l1.336758,1.336747l1.336757,-1.336747l1.258392,1.25838l-1.336758,1.336758l1.336758,1.336758l-1.258392,1.258391l-1.336757,-1.336758l-1.336758,1.336758l-1.25838,-1.258391l1.336747,-1.336758l-1.336747,-1.336758z" stroke-width="0" fill="#f27b7b"/>
  <line stroke="#e6edf2" stroke-width="3" stroke-linecap="null" stroke-linejoin="null" id="svg_193" y2="14.833348" x2="103.903013" y1="14.833348" x1="27.16668" fill="none"/>
  <line stroke-width="2" stroke-linecap="null" stroke-linejoin="null" id="svg_201" y2="38.187218" x2="84.083231" y1="38.187218" x1="33.013566" stroke="#c0c2c4" fill="none"/>
  <line stroke-width="2" stroke-linecap="null" stroke-linejoin="null" id="svg_202" y2="38.187218" x2="210.127537" y1="38.187218" x1="159.057872" stroke="#c0c2c4" fill="none"/>
  <line stroke-width="2" stroke-linecap="null" stroke-linejoin="null" id="svg_204" y2="38.187218" x2="337.711918" y1="38.187218" x1="286.642253" stroke="#c0c2c4" fill="none"/>
  <line stroke-width="2" stroke-linecap="null" stroke-linejoin="null" id="svg_205" y2="112.278" x2="84.083231" y1="112.278" x1="33.013566" stroke="#c0c2c4" fill="none"/>
  <line stroke-width="2" stroke-linecap="null" stroke-linejoin="null" id="svg_207" y2="112.278" x2="209.084986" y1="112.278" x1="158.015321" stroke="#c0c2c4" fill="none"/>
  <line stroke-width="2" stroke-linecap="null" stroke-linejoin="null" id="svg_208" y2="112.278" x2="337.241572" y1="112.278" x1="286.171906" stroke="#c0c2c4" fill="none"/>
  <path stroke="#898989" transform="rotate(90 372.02673339843756,180.74678039550784) " id="svg_209" d="m370.05065,182.590333l1.844022,-1.844012l-1.844022,-1.844025l1.053952,-1.053838l2.898197,2.897863l-2.898197,2.898762" stroke-width="0" fill="#5991a5"/>
  <path stroke="#898989" transform="rotate(90 372.02673339843756,202.74678039550784) " id="svg_210" d="m370.05065,204.590331l1.844022,-1.844012l-1.844022,-1.844025l1.053952,-1.053838l2.898197,2.897863l-2.898197,2.898762" stroke-width="0" fill="#5991a5"/>
  <path stroke="#898989" transform="rotate(90 372.02673339843756,157.70817565917972) " id="svg_211" d="m370.05065,159.551721l1.844022,-1.844012l-1.844022,-1.844025l1.053952,-1.053838l2.898197,2.897863l-2.898197,2.898762" stroke-width="0" fill="#5991a5"/>
  <line stroke="#e6edf2" stroke-width="3" stroke-linecap="null" stroke-linejoin="null" id="svg_212" y2="156.500401" x2="103.903013" y1="156.500401" x1="27.16668" fill="none"/>
  <line stroke="#e6edf2" stroke-width="3" stroke-linecap="null" stroke-linejoin="null" id="svg_213" y2="180.167065" x2="103.903013" y1="180.167065" x1="27.16668" fill="none"/>
  <line stroke="#e6edf2" stroke-width="3" stroke-linecap="null" stroke-linejoin="null" id="svg_214" y2="202.500397" x2="103.903013" y1="202.500397" x1="27.16668" fill="none"/>
 </g>
</svg>